<?xml version="1.0" encoding="UTF-8"?>
<svg xmlns="http://www.w3.org/2000/svg" xmlns:xlink="http://www.w3.org/1999/xlink"
     width="592" height="592" viewBox="-296.0 -296.0 592 592">
<defs>
</defs>
<rect x="-296" y="-296" width="592" height="592" fill="#1248ff" />
<path d="M-202.82125498464757,141.16775979682618 L245.8450688535401,-25.0 L-227.0863531112015,-97.45042898959726 L151.25929997724535,195.41090565778435 L-37.419761079804175,-244.2632992496667 L-85.82361702311452,231.73067263673056 L187.49893933870158,-160.96255970400006 L-242.05450925986946,49.74346616959463 L235.78014284910685,73.97649706262482 L-170.25263084853634,-179.10566593146586 L61.93948049515383,239.22436881637344 L61.939480495154015,-239.2243688163735 L-170.25263084853648,179.1056659314657 L235.7801428491071,-73.97649706262472 L-242.0545092598694,-49.74346616959484 L187.49893933870132,160.96255970400006 L-85.82361702311437,-231.73067263673067 L-37.41976107980433,244.2632992496666 L151.25929997724558,-195.41090565778438 L-227.0863531112016,97.45042898959707 L245.84506885353989,25.000000000000142 L-202.82125498464745,-141.16775979682635 L108.82708710250783,221.85910617413245 L12.516064278748452,-246.79575769160232 L-130.71384400165158,209.71096505884884 L216.06235009344118,-119.92438764363624 L-247.11292535924105,-1.0658141036401503e-13 L216.06235009344093,119.9243876436363 L-130.71384400165144,-209.71096505884898 L12.516064278748281,246.79575769160226 L108.82708710250803,-221.8591061741325 L-202.82125498464757,141.16775979682618 Z" stroke-width="2" stroke="#ffffff" fill="#000000" fill-opacity="1.0" />
</svg>